<?xml version="1.0" encoding="UTF-8" standalone="no"?>
<svg
   width="23"
   height="23"
   viewBox="0 0 6.0854169 6.0854169"
   version="1.1"
   id="svg8"
   inkscape:version="1.2.1 (9c6d41e410, 2022-07-14)"
   sodipodi:docname="Cancel.svg"
   xmlns:inkscape="http://www.inkscape.org/namespaces/inkscape"
   xmlns:sodipodi="http://sodipodi.sourceforge.net/DTD/sodipodi-0.dtd"
   xmlns:xlink="http://www.w3.org/1999/xlink"
   xmlns="http://www.w3.org/2000/svg"
   xmlns:svg="http://www.w3.org/2000/svg"
   xmlns:rdf="http://www.w3.org/1999/02/22-rdf-syntax-ns#"
   xmlns:cc="http://creativecommons.org/ns#"
   xmlns:dc="http://purl.org/dc/elements/1.1/">
  <defs
     id="defs2">
    <linearGradient
       inkscape:collect="always"
       xlink:href="#linearGradient1262"
       id="linearGradient1264"
       x1="0"
       y1="3.0427084"
       x2="2.5537016"
       y2="3.0545201"
       gradientUnits="userSpaceOnUse"
       gradientTransform="translate(-7.3457471,-3.0427083)" />
    <linearGradient
       inkscape:collect="always"
       id="linearGradient1262">
      <stop
         style="stop-color:#ffffff;stop-opacity:0.23;"
         offset="0"
         id="stop1258" />
      <stop
         style="stop-color:#ffffff;stop-opacity:0;"
         offset="1"
         id="stop1260" />
    </linearGradient>
  </defs>
  <sodipodi:namedview
     id="base"
     pagecolor="#ffffff"
     bordercolor="#666666"
     borderopacity="1.0"
     inkscape:pageopacity="0.0"
     inkscape:pageshadow="2"
     inkscape:zoom="11.2"
     inkscape:cx="-7.6339286"
     inkscape:cy="22.678571"
     inkscape:document-units="px"
     inkscape:current-layer="layer1"
     inkscape:document-rotation="0"
     showgrid="false"
     borderlayer="true"
     units="px"
     inkscape:window-width="1920"
     inkscape:window-height="1017"
     inkscape:window-x="-2"
     inkscape:window-y="-8"
     inkscape:window-maximized="1"
     inkscape:showpageshadow="2"
     inkscape:pagecheckerboard="0"
     inkscape:deskcolor="#d1d1d1" />
  <metadata
     id="metadata5">
    <rdf:RDF>
      <cc:Work
         rdf:about="">
        <dc:format>image/svg+xml</dc:format>
        <dc:type
           rdf:resource="http://purl.org/dc/dcmitype/StillImage" />
      </cc:Work>
    </rdf:RDF>
  </metadata>
  <g
     inkscape:label="Layer 1"
     inkscape:groupmode="layer"
     id="layer1">
    <path
       id="rect8508"
       style="fill:#000017;stroke-width:7.88212"
       d="M 0 0 L 0 6.0854169 L 6.0854169 6.0854169 L 6.0854169 0 L 0 0 z M 3.0380576 0.66145836 A 2.38125 2.38125 0 0 1 3.0427085 0.66145836 A 2.38125 2.38125 0 0 1 5.4239585 3.0427085 A 2.38125 2.38125 0 0 1 3.0427085 5.4239585 A 2.38125 2.38125 0 0 1 0.66145836 3.0427085 A 2.38125 2.38125 0 0 1 3.0380576 0.66145836 z M 3.0204876 1.3756267 A 1.6668751 1.6668751 0 0 0 1.3756267 3.0427085 A 1.6668751 1.6668751 0 0 0 1.6391765 3.9413616 L 3.9413616 1.6391765 A 1.6668751 1.6668751 0 0 0 3.0427085 1.3756267 A 1.6668751 1.6668751 0 0 0 3.0204876 1.3756267 z M 4.4462404 2.1440553 L 2.1440553 4.4462404 A 1.6668751 1.6668751 0 0 0 3.0427085 4.7097902 A 1.6668751 1.6668751 0 0 0 4.7097902 3.0427085 A 1.6668751 1.6668751 0 0 0 4.4462404 2.1440553 z " />
    <circle
       style="fill:url(#linearGradient1264);fill-opacity:1;stroke-width:9.34301"
       id="path1157"
       cx="-4.30304"
       cy="2.356406e-07"
       r="3.0427084"
       transform="rotate(-135)" />
  </g>
</svg>
