<?xml version="1.0" encoding="UTF-8" standalone="no"?>
<svg
   width="23"
   height="23"
   viewBox="0 0 6.0854165 6.0854168"
   version="1.1"
   id="svg8"
   inkscape:version="1.2.1 (9c6d41e410, 2022-07-14)"
   sodipodi:docname="Edit.svg"
   xmlns:inkscape="http://www.inkscape.org/namespaces/inkscape"
   xmlns:sodipodi="http://sodipodi.sourceforge.net/DTD/sodipodi-0.dtd"
   xmlns:xlink="http://www.w3.org/1999/xlink"
   xmlns="http://www.w3.org/2000/svg"
   xmlns:svg="http://www.w3.org/2000/svg"
   xmlns:rdf="http://www.w3.org/1999/02/22-rdf-syntax-ns#"
   xmlns:cc="http://creativecommons.org/ns#"
   xmlns:dc="http://purl.org/dc/elements/1.1/">
  <defs
     id="defs2">
    <linearGradient
       inkscape:collect="always"
       xlink:href="#linearGradient1262"
       id="linearGradient1264"
       x1="0"
       y1="3.0427084"
       x2="2.5537016"
       y2="3.0545201"
       gradientUnits="userSpaceOnUse"
       gradientTransform="translate(-7.3457476,-3.0427085)" />
    <linearGradient
       inkscape:collect="always"
       id="linearGradient1262">
      <stop
         style="stop-color:#ffffff;stop-opacity:0.23;"
         offset="0"
         id="stop1258" />
      <stop
         style="stop-color:#ffffff;stop-opacity:0;"
         offset="1"
         id="stop1260" />
    </linearGradient>
  </defs>
  <sodipodi:namedview
     id="base"
     pagecolor="#ffffff"
     bordercolor="#666666"
     borderopacity="1.0"
     inkscape:pageopacity="0.0"
     inkscape:pageshadow="2"
     inkscape:zoom="7.9195959"
     inkscape:cx="-23.67545"
     inkscape:cy="-14.773481"
     inkscape:document-units="px"
     inkscape:current-layer="layer1"
     inkscape:document-rotation="0"
     showgrid="false"
     units="px"
     borderlayer="true"
     inkscape:window-width="1920"
     inkscape:window-height="1017"
     inkscape:window-x="-2"
     inkscape:window-y="-8"
     inkscape:window-maximized="1"
     inkscape:showpageshadow="2"
     inkscape:pagecheckerboard="0"
     inkscape:deskcolor="#d1d1d1" />
  <metadata
     id="metadata5">
    <rdf:RDF>
      <cc:Work
         rdf:about="">
        <dc:format>image/svg+xml</dc:format>
        <dc:type
           rdf:resource="http://purl.org/dc/dcmitype/StillImage" />
      </cc:Work>
    </rdf:RDF>
  </metadata>
  <g
     inkscape:label="Layer 1"
     inkscape:groupmode="layer"
     id="layer1">
    <rect
       style="opacity:0.998;fill:#282828;fill-opacity:1;stroke-width:0.7"
       id="rect833"
       x="-5.1115298"
       y="-5.4790254"
       width="0"
       height="0"
       rx="6.0854168"
       ry="6.0854168" />
    <path
       id="rect7003"
       style="fill:#000017;fill-opacity:1;stroke-width:6.30788"
       d="m 2.8002383,-12.368003 v 7.1437506 h 7.1437499 v -7.1437506 z m 4.8955553,1.261804 c 0.057134,-1.2e-5 0.1145481,0.02173 0.1583321,0.06552 l 0.762542,0.762542 c 0.087548,0.08755 0.08756,0.228519 0,0.3160578 l -0.1383131,0.1371003 -0.06127,0.062487 -0.2080762,0.2074692 -1.0779929,-1.0785993 0.206863,-0.20747 0.062484,-0.06127 0.1377064,-0.138314 c 0.043775,-0.04378 0.1005997,-0.06552 0.1577255,-0.06552 z m -0.6466743,0.554465 1.0779929,1.0785998 -0.1874507,0.1880574 -1.0785996,-1.0792052 z m -0.2905789,0.290579 0.2444745,0.244474 -2.3446495,2.3440443 -0.00303,-0.00364 a 0.41869277,1.7530054 45 0 0 -6.069e-4,-0.2572138 0.41869277,1.7530054 45 0 0 -0.081896,-0.033363 l 0.022445,-0.1310334 z m 0.3372898,0.3378968 0.4034132,0.4028071 -2.3446497,2.3434358 -0.00364,-0.00364 a 0.63803216,2.8758897 45 0 0 0.015774,-0.4100857 0.63803216,2.8758897 45 0 0 -0.4131188,0.012737 l -6.069e-4,-6.069e-4 z m 0.4962286,0.4962283 0.2444745,0.2444745 -2.1626591,2.162659 -0.1334598,0.023654 a 0.41869277,1.7530054 45 0 0 -0.031545,-0.083113 0.41869277,1.7530054 45 0 0 -0.2590334,-0.00176 l -6.069e-4,-0.00117 z m -3.2709832,2.1656924 a 0.81736569,0.81736569 0 0 1 0.3190906,0.1977633 0.81736569,0.81736569 0 0 1 0.1947299,0.3196976 l -0.7728549,0.2572138 z" />
    <path
       id="rect1826"
       style="fill:#000017;fill-opacity:1;stroke-width:5.20822"
       d="M -0.52916666,-0.52916666 V 6.6145833 H 6.6145833 V -0.52916666 Z M 4.4458785,0.99446126 c 0.1217385,4e-8 0.2434416,0.0462442 0.3367237,0.13952634 L 4.951429,1.3028145 c 0.1865643,0.1865643 0.1865643,0.4868829 0,0.6734473 L 4.6984212,2.2288046 3.8566122,1.3869954 4.1091549,1.1339876 C 4.2024371,1.0407055 4.3241399,0.99446124 4.4458785,0.99446126 Z M 3.6040695,1.6395382 4.4458785,2.4813473 2.3962362,4.5309896 A 0.35718749,0.35718749 0 0 0 2.2990328,4.2072884 0.35718749,0.35718749 0 0 0 1.9757967,4.10962 0.35718749,0.35718749 0 0 0 1.8781283,3.7863839 0.35718749,0.35718749 0 0 0 1.5548922,3.6887154 Z M 1.247004,4.3333272 1.7520894,4.8384127 0.99446126,5.0909554 Z" />
    <circle
       style="fill:url(#linearGradient1264);fill-opacity:1;stroke-width:9.34301"
       id="path1157"
       cx="-4.3030396"
       cy="-3.3598923e-08"
       r="3.0427084"
       transform="rotate(-135)" />
    <circle
       style="fill:#5a5a5a;fill-opacity:0.429245;stroke-width:5.85605"
       id="path371"
       cx="-5.1074033"
       cy="-3.3120162"
       r="3.0427084" />
    <path
       id="rect1719"
       style="fill:#5a5a5a;fill-opacity:0.429245;stroke-width:5.08166"
       d="M -6.6078654 -3.9734009 A 0.39687499 0.39687499 0 0 1 -6.4300985 -3.6426717 A 0.39687499 0.39687499 0 0 1 -6.6078654 -3.3119425 A 0.39687499 0.39687499 0 0 1 -6.4300985 -2.9812134 A 0.39687499 0.39687499 0 0 1 -6.6083821 -2.6504842 L -3.3873901 -2.6504842 L -3.3873901 -3.9734009 L -6.6078654 -3.9734009 z M -2.9905151 -3.9734009 L -2.9905151 -2.6504842 L -2.5936401 -2.6504842 C -2.3004823 -2.6504842 -2.0644735 -2.8864932 -2.0644735 -3.1796509 L -2.0644735 -3.4442342 C -2.0644735 -3.7373919 -2.3004823 -3.9734009 -2.5936401 -3.9734009 L -2.9905151 -3.9734009 z M -7.3561401 -3.7088175 L -8.1498901 -3.3119425 L -7.3561401 -2.9150675 L -7.3561401 -3.7088175 z " />
  </g>
</svg>
