<?xml version="1.0" encoding="UTF-8" standalone="no"?>
<!-- Created with Inkscape (http://www.inkscape.org/) -->

<svg
   width="23"
   height="23"
   viewBox="0 0 6.0854167 6.0854166"
   version="1.1"
   id="svg3242"
   inkscape:version="1.3.2 (091e20ef0f, 2023-11-25)"
   sodipodi:docname="MoveUp.svg"
   inkscape:export-filename="Svelte\sv-kit\web\src\lib\btn-img-start.png"
   inkscape:export-xdpi="7.6199999"
   inkscape:export-ydpi="7.6199999"
   xmlns:inkscape="http://www.inkscape.org/namespaces/inkscape"
   xmlns:sodipodi="http://sodipodi.sourceforge.net/DTD/sodipodi-0.dtd"
   xmlns:xlink="http://www.w3.org/1999/xlink"
   xmlns="http://www.w3.org/2000/svg"
   xmlns:svg="http://www.w3.org/2000/svg">
  <sodipodi:namedview
     id="namedview3244"
     pagecolor="#ffffff"
     bordercolor="#666666"
     borderopacity="1.0"
     inkscape:showpageshadow="2"
     inkscape:pageopacity="0.0"
     inkscape:pagecheckerboard="true"
     inkscape:deskcolor="#d1d1d1"
     inkscape:document-units="mm"
     showgrid="false"
     inkscape:zoom="11.930304"
     inkscape:cx="-0.33528066"
     inkscape:cy="16.638303"
     inkscape:window-width="1920"
     inkscape:window-height="1017"
     inkscape:window-x="1912"
     inkscape:window-y="-8"
     inkscape:window-maximized="1"
     inkscape:current-layer="layer1" />
  <defs
     id="defs3239">
    <linearGradient
       inkscape:collect="always"
       xlink:href="#linearGradient1262"
       id="linearGradient1264"
       x1="0"
       y1="3.0427084"
       x2="2.5537016"
       y2="3.0545201"
       gradientUnits="userSpaceOnUse"
       gradientTransform="translate(-7.3457482,-3.0427086)" />
    <linearGradient
       inkscape:collect="always"
       id="linearGradient1262">
      <stop
         style="stop-color:#ffffff;stop-opacity:0.23;"
         offset="0"
         id="stop1258" />
      <stop
         style="stop-color:#ffffff;stop-opacity:0;"
         offset="1"
         id="stop1260" />
    </linearGradient>
  </defs>
  <g
     inkscape:label="Layer 1"
     inkscape:groupmode="layer"
     id="layer1">
    <path
       id="rect1"
       style="fill:#000017;stroke-width:5.7194"
       d="M 3.3333333e-8,1.3333333e-8 V 6.0854167 H 6.0854166 V 1.3333333e-8 Z M 3.6173502,0.39687501 A 2.7080653,2.7080653 0 0 1 4.5067016,0.76532797 0.58029968,0.58029968 0 0 0 4.5470093,1.5384074 0.58029968,0.58029968 0 0 0 5.3200887,1.5787151 2.7080653,2.7080653 0 0 1 5.6885416,2.4680665 0.58029968,0.58029968 0 0 0 5.170227,3.0432252 0.58029968,0.58029968 0 0 0 5.6875081,3.6178671 2.7080653,2.7080653 0 0 1 5.3185384,4.506185 0.58029968,0.58029968 0 0 0 4.9350993,4.3775106 0.58029968,0.58029968 0 0 0 4.5470093,4.5475261 0.58029968,0.58029968 0 0 0 4.5056681,5.319572 2.7080653,2.7080653 0 0 1 3.6173502,5.6885417 0.58029968,0.58029968 0 0 0 3.0421915,5.1707439 0.58029968,0.58029968 0 0 0 2.4675496,5.6885417 2.7080653,2.7080653 0 0 1 1.5802653,5.3206055 0.58029968,0.58029968 0 0 0 1.5378906,4.5475261 0.58029968,0.58029968 0 0 0 1.1053589,4.3775106 0.58029968,0.58029968 0 0 0 0.76532793,4.5056682 2.7080653,2.7080653 0 0 1 0.39739173,3.6199341 0.58029968,0.58029968 0 0 0 0.91467283,3.0432252 0.58029968,0.58029968 0 0 0 0.39687503,2.4680665 2.7080653,2.7080653 0 0 1 0.76584473,1.5797486 0.58029968,0.58029968 0 0 0 1.5378906,1.5384074 0.58029968,0.58029968 0 0 0 1.5802653,0.76532797 2.7080653,2.7080653 0 0 1 2.4675496,0.39739177 0.58029968,0.58029968 0 0 0 3.0421915,0.91518962 0.58029968,0.58029968 0 0 0 3.6173502,0.39687501 Z M 3.0421915,1.3017294 a 1.7408991,1.7408991 0 0 0 -1.740979,1.7414958 1.7408991,1.7408991 0 0 0 1.740979,1.740979 1.7408991,1.7408991 0 0 0 1.7414958,-1.740979 1.7408991,1.7408991 0 0 0 -1.7414958,-1.7414958 z m 5.168e-4,0.2857707 1.2655558,1.2655558 H 3.6752278 V 4.4979167 H 2.4101888 V 2.8530559 H 1.7771525 Z" />
    <circle
       style="fill:url(#linearGradient1264);fill-opacity:1;stroke-width:9.34301"
       id="path1157"
       cx="-4.3030391"
       cy="-1.1399729e-07"
       r="3.0427084"
       transform="rotate(-135)" />
  </g>
</svg>
