<?xml version="1.0" encoding="UTF-8" standalone="no"?>
<!-- Created with Inkscape (http://www.inkscape.org/) -->

<svg
   width="23"
   height="23"
   viewBox="0 0 6.0854167 6.0854166"
   version="1.1"
   id="svg3242"
   inkscape:version="1.3.2 (091e20ef0f, 2023-11-25)"
   sodipodi:docname="MoveDown.svg"
   inkscape:export-filename="Svelte\sv-kit\web\src\lib\btn-img-start.png"
   inkscape:export-xdpi="7.6199999"
   inkscape:export-ydpi="7.6199999"
   xmlns:inkscape="http://www.inkscape.org/namespaces/inkscape"
   xmlns:sodipodi="http://sodipodi.sourceforge.net/DTD/sodipodi-0.dtd"
   xmlns:xlink="http://www.w3.org/1999/xlink"
   xmlns="http://www.w3.org/2000/svg"
   xmlns:svg="http://www.w3.org/2000/svg">
  <sodipodi:namedview
     id="namedview3244"
     pagecolor="#ffffff"
     bordercolor="#666666"
     borderopacity="1.0"
     inkscape:showpageshadow="2"
     inkscape:pageopacity="0.0"
     inkscape:pagecheckerboard="true"
     inkscape:deskcolor="#d1d1d1"
     inkscape:document-units="mm"
     showgrid="false"
     inkscape:zoom="11.930304"
     inkscape:cx="-0.37719072"
     inkscape:cy="16.638302"
     inkscape:window-width="1920"
     inkscape:window-height="1017"
     inkscape:window-x="1912"
     inkscape:window-y="-8"
     inkscape:window-maximized="1"
     inkscape:current-layer="layer1" />
  <defs
     id="defs3239">
    <linearGradient
       inkscape:collect="always"
       xlink:href="#linearGradient1262"
       id="linearGradient1264"
       x1="0"
       y1="3.0427084"
       x2="2.5537016"
       y2="3.0545201"
       gradientUnits="userSpaceOnUse"
       gradientTransform="translate(-7.3457482,-3.0427086)" />
    <linearGradient
       inkscape:collect="always"
       id="linearGradient1262">
      <stop
         style="stop-color:#ffffff;stop-opacity:0.23;"
         offset="0"
         id="stop1258" />
      <stop
         style="stop-color:#ffffff;stop-opacity:0;"
         offset="1"
         id="stop1260" />
    </linearGradient>
  </defs>
  <g
     inkscape:label="Layer 1"
     inkscape:groupmode="layer"
     id="layer1">
    <path
       id="rect1"
       style="fill:#000017;stroke-width:5.7194"
       d="M 6.0854166,6.0854167 V -2.6666666e-8 H 7.3333333e-8 V 6.0854167 Z M 2.4680665,5.6885417 A 2.7080653,2.7080653 0 0 1 1.5787151,5.3200887 0.58029968,0.58029968 0 0 0 1.5384074,4.5470093 0.58029968,0.58029968 0 0 0 0.76532797,4.5067016 2.7080653,2.7080653 0 0 1 0.39687507,3.6173502 0.58029968,0.58029968 0 0 0 0.91518967,3.0421915 0.58029968,0.58029968 0 0 0 0.39790857,2.4675496 2.7080653,2.7080653 0 0 1 0.76687827,1.5792317 0.58029968,0.58029968 0 0 0 1.1503174,1.7079061 0.58029968,0.58029968 0 0 0 1.5384074,1.5378906 0.58029968,0.58029968 0 0 0 1.5797486,0.76584467 2.7080653,2.7080653 0 0 1 2.4680665,0.39687497 0.58029968,0.58029968 0 0 0 3.0432252,0.91467277 0.58029968,0.58029968 0 0 0 3.6178671,0.39687497 2.7080653,2.7080653 0 0 1 4.5051514,0.76481117 0.58029968,0.58029968 0 0 0 4.5475261,1.5378906 0.58029968,0.58029968 0 0 0 4.9800578,1.7079061 0.58029968,0.58029968 0 0 0 5.3200887,1.5797485 2.7080653,2.7080653 0 0 1 5.6880249,2.4654826 0.58029968,0.58029968 0 0 0 5.1707438,3.0421915 0.58029968,0.58029968 0 0 0 5.6885416,3.6173502 2.7080653,2.7080653 0 0 1 5.3195719,4.5056681 0.58029968,0.58029968 0 0 0 4.5475261,4.5470093 0.58029968,0.58029968 0 0 0 4.5051514,5.3200887 2.7080653,2.7080653 0 0 1 3.6178671,5.6880249 0.58029968,0.58029968 0 0 0 3.0432252,5.1702271 0.58029968,0.58029968 0 0 0 2.4680665,5.6885417 Z M 3.0432252,4.7836873 A 1.7408991,1.7408991 0 0 0 4.7842042,3.0421915 1.7408991,1.7408991 0 0 0 3.0432252,1.3012125 1.7408991,1.7408991 0 0 0 1.3017294,3.0421915 1.7408991,1.7408991 0 0 0 3.0432252,4.7836873 Z M 3.0427084,4.4979166 1.7771526,3.2323608 H 2.4101889 V 1.5875 h 1.265039 v 1.6448608 h 0.6330363 z" />
    <circle
       style="fill:url(#linearGradient1264);fill-opacity:1;stroke-width:9.34301"
       id="path1157"
       cx="-4.3030391"
       cy="-1.1399729e-07"
       r="3.0427084"
       transform="rotate(-135)" />
  </g>
</svg>
