<?xml version="1.0" encoding="UTF-8" standalone="no"?>
<svg
   width="23"
   height="23"
   viewBox="0 0 6.0854165 6.0854168"
   version="1.1"
   id="svg8"
   inkscape:version="1.3.2 (091e20ef0f, 2023-11-25)"
   sodipodi:docname="Question.svg"
   xmlns:inkscape="http://www.inkscape.org/namespaces/inkscape"
   xmlns:sodipodi="http://sodipodi.sourceforge.net/DTD/sodipodi-0.dtd"
   xmlns:xlink="http://www.w3.org/1999/xlink"
   xmlns="http://www.w3.org/2000/svg"
   xmlns:svg="http://www.w3.org/2000/svg"
   xmlns:rdf="http://www.w3.org/1999/02/22-rdf-syntax-ns#"
   xmlns:cc="http://creativecommons.org/ns#"
   xmlns:dc="http://purl.org/dc/elements/1.1/">
  <defs
     id="defs2">
    <linearGradient
       inkscape:collect="always"
       xlink:href="#linearGradient1262"
       id="linearGradient1264"
       x1="0"
       y1="3.0427084"
       x2="2.5537016"
       y2="3.0545201"
       gradientUnits="userSpaceOnUse"
       gradientTransform="translate(-213.0534,-208.75038)" />
    <linearGradient
       inkscape:collect="always"
       id="linearGradient1262">
      <stop
         style="stop-color:#ffffff;stop-opacity:0.23;"
         offset="0"
         id="stop1258" />
      <stop
         style="stop-color:#ffffff;stop-opacity:0;"
         offset="1"
         id="stop1260" />
    </linearGradient>
  </defs>
  <sodipodi:namedview
     id="base"
     pagecolor="#ffffff"
     bordercolor="#666666"
     borderopacity="1.0"
     inkscape:pageopacity="0.0"
     inkscape:pageshadow="2"
     inkscape:zoom="16"
     inkscape:cx="4.65625"
     inkscape:cy="9.34375"
     inkscape:document-units="px"
     inkscape:current-layer="layer1"
     showgrid="false"
     units="px"
     borderlayer="true"
     inkscape:window-width="1920"
     inkscape:window-height="1017"
     inkscape:window-x="1912"
     inkscape:window-y="-8"
     inkscape:window-maximized="1"
     inkscape:document-rotation="0"
     inkscape:showpageshadow="2"
     inkscape:pagecheckerboard="0"
     inkscape:deskcolor="#d1d1d1" />
  <metadata
     id="metadata5">
    <rdf:RDF>
      <cc:Work
         rdf:about="">
        <dc:format>image/svg+xml</dc:format>
        <dc:type
           rdf:resource="http://purl.org/dc/dcmitype/StillImage" />
      </cc:Work>
    </rdf:RDF>
  </metadata>
  <g
     inkscape:label="Layer 1"
     inkscape:groupmode="layer"
     id="layer1"
     transform="translate(0,-290.91457)">
    <path
       id="rect2"
       style="fill:#000017;stroke-width:5.4956;stroke-opacity:0.7"
       d="M 0 290.91457 L 0 296.99999 L 6.0854166 296.99999 L 6.0854166 290.91457 L 0 290.91457 z M 3.047876 291.9729 C 3.4294009 291.9729 3.7338582 292.07689 3.9609985 292.28451 C 4.1881389 292.49213 4.3015462 292.74286 4.3015462 293.03744 C 4.3015462 293.20779 4.2620276 293.36499 4.1821737 293.50873 C 4.1023193 293.65246 3.9459325 293.8274 3.7134684 294.03324 C 3.5573096 294.17166 3.4554565 294.27351 3.4075439 294.33917 C 3.3596317 294.40483 3.3241595 294.48033 3.3010905 294.56551 C 3.2780218 294.65069 3.264332 294.78934 3.2607829 294.98099 L 2.8003459 294.98099 C 2.7985713 294.91711 2.797762 294.86875 2.797762 294.83681 C 2.797762 294.64871 2.8246246 294.48666 2.8778605 294.35002 C 2.9169003 294.2471 2.9795273 294.14311 3.0664795 294.03841 C 3.1303627 293.96211 3.245096 293.85113 3.4101278 293.70561 C 3.576934 293.55833 3.6849689 293.44117 3.7346558 293.35421 C 3.7843428 293.26726 3.8090698 293.1724 3.8090698 293.06948 C 3.8090698 292.88315 3.736507 292.71977 3.5909953 292.57958 C 3.4454834 292.43762 3.2673138 292.36668 3.0561442 292.36668 C 2.8520728 292.36668 2.6817034 292.43063 2.5450643 292.5584 C 2.4084251 292.68616 2.3189357 292.88582 2.2763468 293.15733 L 1.7838704 293.09893 C 1.8282338 292.73515 1.9593771 292.45623 2.1776449 292.26281 C 2.397687 292.06938 2.6876456 291.9729 3.047876 291.9729 z M 2.7714071 295.39595 L 3.3171102 295.39595 L 3.3171102 295.94165 L 2.7714071 295.94165 L 2.7714071 295.39595 z " />
    <circle
       style="fill:url(#linearGradient1264);fill-opacity:1;stroke-width:9.34301"
       id="path1157"
       cx="-210.0107"
       cy="-205.70767"
       r="3.0427084"
       transform="rotate(-135)" />
  </g>
</svg>
