<?xml version="1.0" encoding="UTF-8" standalone="no"?>
<!-- Created with Inkscape (http://www.inkscape.org/) -->

<svg
   width="23"
   height="23"
   viewBox="0 0 6.0854167 6.0854166"
   version="1.1"
   id="svg3242"
   inkscape:version="1.3.2 (091e20ef0f, 2023-11-25)"
   sodipodi:docname="Reset.svg"
   inkscape:export-filename="Svelte\sv-kit\web\src\lib\btn-img-start.png"
   inkscape:export-xdpi="7.6199999"
   inkscape:export-ydpi="7.6199999"
   xmlns:inkscape="http://www.inkscape.org/namespaces/inkscape"
   xmlns:sodipodi="http://sodipodi.sourceforge.net/DTD/sodipodi-0.dtd"
   xmlns:xlink="http://www.w3.org/1999/xlink"
   xmlns="http://www.w3.org/2000/svg"
   xmlns:svg="http://www.w3.org/2000/svg">
  <sodipodi:namedview
     id="namedview3244"
     pagecolor="#ffffff"
     bordercolor="#666666"
     borderopacity="1.0"
     inkscape:showpageshadow="2"
     inkscape:pageopacity="0.0"
     inkscape:pagecheckerboard="true"
     inkscape:deskcolor="#d1d1d1"
     inkscape:document-units="mm"
     showgrid="false"
     inkscape:zoom="16.871997"
     inkscape:cx="14.847087"
     inkscape:cy="19.410862"
     inkscape:window-width="1920"
     inkscape:window-height="1017"
     inkscape:window-x="1912"
     inkscape:window-y="-8"
     inkscape:window-maximized="1"
     inkscape:current-layer="layer1" />
  <defs
     id="defs3239">
    <linearGradient
       inkscape:collect="always"
       xlink:href="#linearGradient1262"
       id="linearGradient1264"
       x1="0"
       y1="3.0427084"
       x2="2.5537016"
       y2="3.0545201"
       gradientUnits="userSpaceOnUse"
       gradientTransform="translate(-7.3457481,-3.0427086)" />
    <linearGradient
       inkscape:collect="always"
       id="linearGradient1262">
      <stop
         style="stop-color:#ffffff;stop-opacity:0.23;"
         offset="0"
         id="stop1258" />
      <stop
         style="stop-color:#ffffff;stop-opacity:0;"
         offset="1"
         id="stop1260" />
    </linearGradient>
  </defs>
  <g
     inkscape:label="Layer 1"
     inkscape:groupmode="layer"
     id="layer1">
    <path
       id="rect2"
       style="fill:#000017;fill-opacity:1;stroke-width:4.65891;stroke-opacity:0.7"
       d="M 8.3333333e-8,-1.6666668e-8 V 6.0854167 H 6.0854166 V -1.6666668e-8 Z M 3.0427086,0.39687498 l 5.17e-4,0.5012614 a 2.1452752,2.1452752 0 0 1 1.516186,0.62786872 2.1452752,2.1452752 0 0 1 0,3.0339233 L 4.0545326,4.0545329 a 1.4301766,1.4301778 90 0 0 0.012919,-0.015503 1.430178,1.4301792 90 0 0 0.071314,-0.078031 1.4301766,1.4301778 90 0 0 0.013436,-0.01602 1.430178,1.4301792 90 0 0 0.080615,-0.1085205 1.4301766,1.4301778 90 0 0 0.0031,-0.00568 1.430178,1.4301792 90 0 0 0.066662,-0.1111044 1.4301766,1.4301778 90 0 0 0.00724,-0.013953 1.430178,1.4301792 90 0 0 0.163297,-0.6630086 1.430178,1.4301792 90 0 0 -1.429886,-1.4298869 V 2.1130493 L 2.1853966,1.2552206 Z M 1.5260051,1.5260051 2.0314006,2.0319173 a 1.4301766,1.4301778 90 0 0 -0.00103,5.168e-4 1.430178,1.4301792 90 0 0 -0.417546,1.0102743 1.430178,1.4301792 90 0 0 1.429887,1.4309204 V 3.9723674 l 0.858345,0.8583455 -0.858345,0.8578288 V 5.1883138 A 2.1452752,2.1452752 0 0 1 1.5260051,4.5599284 2.1452752,2.1452752 0 0 1 0.89710288,3.0427084 2.1452752,2.1452752 0 0 1 1.5260051,1.5260051 Z" />
    <circle
       style="fill:url(#linearGradient1264);fill-opacity:1;stroke-width:9.34301"
       id="path1157"
       cx="-4.3030396"
       cy="-3.9491482e-08"
       r="3.0427084"
       transform="rotate(-135)" />
  </g>
</svg>
