<?xml version="1.0" encoding="UTF-8" standalone="no"?>
<!-- Created with Inkscape (http://www.inkscape.org/) -->

<svg
   width="23"
   height="23"
   viewBox="0 0 6.0854167 6.0854166"
   version="1.1"
   id="svg3242"
   inkscape:version="1.3.2 (091e20ef0f, 2023-11-25)"
   sodipodi:docname="Settings.svg"
   inkscape:export-filename="Svelte\sv-kit\web\src\lib\btn-img-start.png"
   inkscape:export-xdpi="7.6199999"
   inkscape:export-ydpi="7.6199999"
   xmlns:inkscape="http://www.inkscape.org/namespaces/inkscape"
   xmlns:sodipodi="http://sodipodi.sourceforge.net/DTD/sodipodi-0.dtd"
   xmlns:xlink="http://www.w3.org/1999/xlink"
   xmlns="http://www.w3.org/2000/svg"
   xmlns:svg="http://www.w3.org/2000/svg">
  <sodipodi:namedview
     id="namedview3244"
     pagecolor="#ffffff"
     bordercolor="#666666"
     borderopacity="1.0"
     inkscape:showpageshadow="2"
     inkscape:pageopacity="0.0"
     inkscape:pagecheckerboard="true"
     inkscape:deskcolor="#d1d1d1"
     inkscape:document-units="mm"
     showgrid="false"
     inkscape:zoom="23.860607"
     inkscape:cx="-1.3620777"
     inkscape:cy="11.378587"
     inkscape:window-width="1920"
     inkscape:window-height="1017"
     inkscape:window-x="1912"
     inkscape:window-y="-8"
     inkscape:window-maximized="1"
     inkscape:current-layer="layer1" />
  <defs
     id="defs3239">
    <linearGradient
       inkscape:collect="always"
       xlink:href="#linearGradient1262"
       id="linearGradient1264"
       x1="0"
       y1="3.0427084"
       x2="2.5537016"
       y2="3.0545201"
       gradientUnits="userSpaceOnUse"
       gradientTransform="translate(-7.3457482,-3.0427086)" />
    <linearGradient
       inkscape:collect="always"
       id="linearGradient1262">
      <stop
         style="stop-color:#ffffff;stop-opacity:0.23;"
         offset="0"
         id="stop1258" />
      <stop
         style="stop-color:#ffffff;stop-opacity:0;"
         offset="1"
         id="stop1260" />
    </linearGradient>
  </defs>
  <g
     inkscape:label="Layer 1"
     inkscape:groupmode="layer"
     id="layer1">
    <path
       id="rect3"
       style="fill:#000017;fill-opacity:1;stroke-width:10.5877;stroke-opacity:0.7"
       d="M 0 0 L 0 6.0854167 L 6.0854167 6.0854167 L 6.0854167 0 L 0 0 z M 3.5599894 0.66145833 A 2.4372587 2.4372587 0 0 1 4.3604574 0.99322103 A 0.5222697 0.5222697 0 0 0 4.3966309 1.6887858 A 0.5222697 0.5222697 0 0 0 5.0921956 1.7249593 A 2.4372587 2.4372587 0 0 1 5.4239583 2.5254272 A 0.5222697 0.5222697 0 0 0 4.9573201 3.0432251 A 0.5222697 0.5222697 0 0 0 5.4229248 3.5605062 A 2.4372587 2.4372587 0 0 1 5.0911621 4.3599406 A 0.5222697 0.5222697 0 0 0 4.7459635 4.2441854 A 0.5222697 0.5222697 0 0 0 4.3966309 4.3971476 A 0.5222697 0.5222697 0 0 0 4.3594238 5.0916789 A 2.4372587 2.4372587 0 0 1 3.5599894 5.4239583 A 0.5222697 0.5222697 0 0 0 3.0421916 4.9578369 A 0.5222697 0.5222697 0 0 0 2.5249105 5.4239583 A 2.4372587 2.4372587 0 0 1 1.7265096 5.0927124 A 0.5222697 0.5222697 0 0 0 1.688269 4.3971476 A 0.5222697 0.5222697 0 0 0 1.2991455 4.2441854 A 0.5222697 0.5222697 0 0 0 0.99322103 4.3594238 A 2.4372587 2.4372587 0 0 1 0.6619751 3.5620565 A 0.5222697 0.5222697 0 0 0 1.1275798 3.0432251 A 0.5222697 0.5222697 0 0 0 0.66145833 2.5254272 A 2.4372587 2.4372587 0 0 1 0.99373779 1.7259928 A 0.5222697 0.5222697 0 0 0 1.688269 1.6887858 A 0.5222697 0.5222697 0 0 0 1.7265096 0.99322103 A 2.4372587 2.4372587 0 0 1 2.5249105 0.6619751 A 0.5222697 0.5222697 0 0 0 3.0421916 1.1280965 A 0.5222697 0.5222697 0 0 0 3.5599894 0.66145833 z M 3.0421916 1.4758789 A 1.5668092 1.5668092 0 0 0 1.4753621 3.0432251 A 1.5668092 1.5668092 0 0 0 3.0421916 4.6100545 A 1.5668092 1.5668092 0 0 0 4.6095378 3.0432251 A 1.5668092 1.5668092 0 0 0 3.0421916 1.4758789 z " />
    <circle
       style="fill:url(#linearGradient1264);fill-opacity:1;stroke-width:9.34301"
       id="path1157"
       cx="-4.3030391"
       cy="-1.1399729e-07"
       r="3.0427084"
       transform="rotate(-135)" />
  </g>
</svg>
