<?xml version="1.0" encoding="UTF-8" standalone="no"?>
<svg
   width="23"
   height="23"
   viewBox="0 0 6.0854165 6.0854168"
   version="1.1"
   id="svg8"
   inkscape:version="1.3.2 (091e20ef0f, 2023-11-25)"
   sodipodi:docname="Zero.svg"
   xmlns:inkscape="http://www.inkscape.org/namespaces/inkscape"
   xmlns:sodipodi="http://sodipodi.sourceforge.net/DTD/sodipodi-0.dtd"
   xmlns:xlink="http://www.w3.org/1999/xlink"
   xmlns="http://www.w3.org/2000/svg"
   xmlns:svg="http://www.w3.org/2000/svg"
   xmlns:rdf="http://www.w3.org/1999/02/22-rdf-syntax-ns#"
   xmlns:cc="http://creativecommons.org/ns#"
   xmlns:dc="http://purl.org/dc/elements/1.1/">
  <defs
     id="defs2">
    <linearGradient
       inkscape:collect="always"
       xlink:href="#linearGradient1262"
       id="linearGradient1264"
       x1="0"
       y1="3.0427084"
       x2="2.5537016"
       y2="3.0545201"
       gradientUnits="userSpaceOnUse"
       gradientTransform="translate(-7.3457478,-3.0427085)" />
    <linearGradient
       inkscape:collect="always"
       id="linearGradient1262">
      <stop
         style="stop-color:#ffffff;stop-opacity:0.23;"
         offset="0"
         id="stop1258" />
      <stop
         style="stop-color:#ffffff;stop-opacity:0;"
         offset="1"
         id="stop1260" />
    </linearGradient>
  </defs>
  <sodipodi:namedview
     id="base"
     pagecolor="#9a9b9b"
     bordercolor="#666666"
     borderopacity="1.0"
     inkscape:pageopacity="0.0"
     inkscape:pageshadow="2"
     inkscape:zoom="15.839192"
     inkscape:cx="3.6302357"
     inkscape:cy="7.3551732"
     inkscape:document-units="px"
     inkscape:current-layer="layer1"
     inkscape:document-rotation="0"
     showgrid="false"
     units="px"
     borderlayer="true"
     inkscape:window-width="1920"
     inkscape:window-height="1017"
     inkscape:window-x="1912"
     inkscape:window-y="-8"
     inkscape:window-maximized="1"
     inkscape:showpageshadow="2"
     inkscape:pagecheckerboard="true"
     inkscape:deskcolor="#d1d1d1" />
  <metadata
     id="metadata5">
    <rdf:RDF>
      <cc:Work
         rdf:about="">
        <dc:format>image/svg+xml</dc:format>
        <dc:type
           rdf:resource="http://purl.org/dc/dcmitype/StillImage" />
      </cc:Work>
    </rdf:RDF>
  </metadata>
  <g
     inkscape:label="Layer 1"
     inkscape:groupmode="layer"
     id="layer1">
    <rect
       style="opacity:0.998;fill:#282828;fill-opacity:1;stroke-width:0.7"
       id="rect833"
       x="-5.1115298"
       y="-5.4790254"
       width="0"
       height="0"
       rx="6.0854168"
       ry="6.0854168" />
    <path
       id="rect1"
       style="fill:#000017;stroke-width:2.14299"
       d="M -2.0000002e-8,-2.5000002e-8 V 6.0854167 H 6.0854167 V -2.5000002e-8 Z M 3.4323487,0.66145827 3.896403,0.78548177 3.8256063,1.0490316 c 0.4124088,0.3220685 0.6185669,0.9798638 0.6185669,1.9740397 0,0.3601412 -0.032676,0.6789384 -0.098702,0.9570475 C 4.2814461,4.2582278 4.1873666,4.4934267 4.0633179,4.6855021 3.94127,4.8755765 3.7901861,5.0205785 3.6101156,5.1206177 3.4320457,5.2186564 3.2289399,5.2678955 3.0008505,5.2678955 c -0.1043118,0 -0.2035516,-0.011159 -0.2971395,-0.033073 L 2.6530681,5.4239583 2.1895305,5.2994181 2.2649781,5.0177816 C 2.1635018,4.9342804 2.073211,4.8321441 1.9952271,4.70979 1.8791816,4.5277186 1.7911845,4.3046837 1.7311605,4.0405802 1.6711366,3.7744758 1.6412435,3.4701086 1.6412435,3.1279744 c 0,-0.3761475 0.030994,-0.7082087 0.093018,-0.9963216 0.064025,-0.288113 0.157005,-0.5293939 0.2790527,-0.72347 0.1220479,-0.1960769 0.2731317,-0.3432788 0.4532023,-0.44131673 0.1820714,-0.100039 0.3901596,-0.1498617 0.6242513,-0.1498617 0.1034037,0 0.200418,0.010145 0.2919719,0.029456 z M 3.0664795,1.2340332 c -0.6142409,-4e-7 -0.920874,0.6236812 -0.920874,1.8701701 0,0.6281189 0.088235,1.0858705 0.2640666,1.3745931 L 3.2711182,1.262972 C 3.2075362,1.243906 3.1391264,1.234033 3.0664795,1.2340332 Z M 3.6757447,1.607137 2.8168824,4.8136597 c 0.071683,0.022169 0.1488592,0.034106 0.2320271,0.034106 0.594233,0 0.8909017,-0.5921713 0.8909017,-1.7766358 0,-0.6731255 -0.088119,-1.1609006 -0.2640665,-1.4639929 z" />
    <circle
       style="fill:url(#linearGradient1264);fill-opacity:1;stroke-width:9.34301"
       id="path1157"
       cx="-4.3030396"
       cy="-3.3598926e-08"
       r="3.0427084"
       transform="rotate(-135)" />
  </g>
</svg>
